<svg xmlns="http://www.w3.org/2000/svg" aria-hidden="true" fill="#fff" height="24" role="img" viewBox="0 0 24 24" width="24">
    <path d="M14.998 12a4.505 4.505 0 0 1-4.5-4.5c0-2.481 2.019-4.5 4.5-4.5 2.482 0 4.5 2.019 4.5 4.5s-2.018 4.5-4.5 4.5Zm0 9c-2.872 0-5.086-.446-6.439-.821a2.128 2.128 0 0 1-1.445-1.338 2.045 2.045 0 0 1 .275-1.874c1.719-2.38 4.563-3.8 7.609-3.8 3.046 0 5.892 1.42 7.61 3.802.398.55.499 1.233.275 1.872a2.14 2.14 0 0 1-1.455 1.343c-1.345.372-3.55.816-6.43.816ZM4 14V8a1 1 0 0 1 2 0v6a1 1 0 1 1-2 0Z" fill="#fff"></path>
    <path d="M8 10a1 1 0 1 1 0 2H2a1 1 0 1 1 0-2h6Z" fill="#fff"></path>
</svg>