<svg version="1.1" id="Layer_1" xmlns="http://www.w3.org/2000/svg" xmlns:xlink="http://www.w3.org/1999/xlink" x="0px" y="0px"
	 width="100%" viewBox="0 0 300 300" enable-background="new 0 0 300 300" xml:space="preserve">
<path fill="#FFFFFF" opacity="1.000000" stroke="none" 
	d="
M301.000000,135.000000 
	C301.000000,145.020889 301.000000,155.041794 300.635071,165.229919 
	C299.847626,166.233414 299.130798,167.041077 299.046295,167.910202 
	C297.552673,183.271835 293.410065,197.906021 286.997314,211.906189 
	C277.071045,233.576843 263.005829,252.178543 244.359650,266.993774 
	C221.970703,284.782776 196.702408,296.146362 167.966171,299.077087 
	C167.252838,299.149872 166.652863,300.334137 166.000000,301.000000 
	C155.979111,301.000000 145.958206,301.000000 135.770111,300.634399 
	C131.192215,299.508057 126.737320,298.941986 122.378502,297.952576 
	C103.950554,293.769745 86.509979,287.151276 70.455505,276.998291 
	C56.199017,267.982330 43.686085,256.946381 33.435299,243.676498 
	C26.888231,235.201141 21.154034,225.948273 16.151569,216.465714 
	C9.314123,203.504837 4.745198,189.612442 2.887122,174.946655 
	C2.837836,174.557648 1.654489,174.312332 1.000000,174.000000 
	C1.000000,158.645767 1.000000,143.291550 1.421059,127.462158 
	C2.197112,126.727554 2.828658,126.503891 2.867526,126.203537 
	C5.079812,109.108398 11.198036,93.395882 19.230974,78.251396 
	C29.067263,59.707039 42.836285,44.385738 59.125473,31.682882 
	C78.607483,16.490160 100.766663,6.452124 125.533684,2.913918 
	C126.101997,2.832728 126.514709,1.662336 127.000000,1.000001 
	C142.354233,1.000000 157.708450,1.000000 173.231110,1.357023 
	C174.063080,2.137295 174.675400,2.780281 175.398346,2.948925 
	C181.030746,4.262797 186.763321,5.207797 192.317444,6.785869 
	C212.716858,12.581871 230.796234,22.553211 247.015015,36.336288 
	C261.373199,48.538177 273.054504,62.688419 282.008972,79.175430 
	C291.243042,96.177269 297.520691,114.111855 299.092712,133.537430 
	C299.136078,134.072891 300.338226,134.514587 301.000000,135.000000 
M91.049873,259.561035 
	C94.569046,261.111176 98.130058,262.573547 101.599792,264.227417 
	C113.387627,269.846222 125.991432,273.039856 138.818695,273.728058 
	C150.406021,274.349731 162.257797,273.582642 173.744034,271.812592 
	C197.837372,268.099792 218.521637,256.781403 236.185226,240.191681 
	C248.483765,228.640869 257.705109,214.801422 264.372711,199.237274 
	C269.494843,187.280670 273.176666,174.829102 273.750244,161.959900 
	C274.267456,150.356216 273.556335,138.523575 271.814880,127.030090 
	C268.294434,103.795067 257.496429,83.718880 241.807739,66.430481 
	C225.511597,48.472679 205.398743,36.276642 181.829575,30.588621 
	C171.313293,28.050686 160.358612,27.025658 149.535248,26.191921 
	C144.128464,25.775429 138.582199,27.473145 133.076904,27.968912 
	C121.059601,29.051105 109.726822,32.581257 98.881340,37.636391 
	C79.667526,46.592049 63.638901,59.395397 50.833042,76.505096 
	C34.427444,98.424355 27.180790,123.285133 26.204590,150.120941 
	C25.906788,158.307556 27.644253,166.643021 29.065470,174.803055 
	C33.046013,197.657669 43.601578,217.349915 59.036221,234.457809 
	C68.060890,244.460785 78.740196,252.474228 91.049873,259.561035 
z"/>
<path fill="#000000" opacity="1.000000" stroke="none" 
	d="
M166.468658,301.000000 
	C166.652863,300.334137 167.252838,299.149872 167.966171,299.077087 
	C196.702408,296.146362 221.970703,284.782776 244.359650,266.993774 
	C263.005829,252.178543 277.071045,233.576843 286.997314,211.906189 
	C293.410065,197.906021 297.552673,183.271835 299.046295,167.910202 
	C299.130798,167.041077 299.847626,166.233414 300.635071,165.698578 
	C301.000000,210.926987 301.000000,255.853989 301.000000,301.000000 
	C256.312683,301.000000 211.625000,301.000000 166.468658,301.000000 
z"/>
<path fill="#000000" opacity="1.000000" stroke="none" 
	d="
M301.000000,134.531342 
	C300.338226,134.514587 299.136078,134.072891 299.092712,133.537430 
	C297.520691,114.111855 291.243042,96.177269 282.008972,79.175430 
	C273.054504,62.688419 261.373199,48.538177 247.015015,36.336288 
	C230.796234,22.553211 212.716858,12.581871 192.317444,6.785869 
	C186.763321,5.207797 181.030746,4.262797 175.398346,2.948925 
	C174.675400,2.780281 174.063080,2.137295 173.699768,1.357023 
	C216.262268,1.000000 258.524536,1.000000 301.000000,1.000000 
	C301.000000,45.354000 301.000000,89.708344 301.000000,134.531342 
z"/>
<path fill="#000000" opacity="1.000000" stroke="none" 
	d="
M1.000000,174.468658 
	C1.654489,174.312332 2.837836,174.557648 2.887122,174.946655 
	C4.745198,189.612442 9.314123,203.504837 16.151569,216.465714 
	C21.154034,225.948273 26.888231,235.201141 33.435299,243.676498 
	C43.686085,256.946381 56.199017,267.982330 70.455505,276.998291 
	C86.509979,287.151276 103.950554,293.769745 122.378502,297.952576 
	C126.737320,298.941986 131.192215,299.508057 135.301453,300.634399 
	C90.408310,301.000000 45.816616,301.000000 1.000000,301.000000 
	C1.000000,258.979370 1.000000,216.958344 1.000000,174.468658 
z"/>
<path fill="#000000" opacity="1.000000" stroke="none" 
	d="
M126.531342,1.000001 
	C126.514709,1.662336 126.101997,2.832728 125.533684,2.913918 
	C100.766663,6.452124 78.607483,16.490160 59.125473,31.682882 
	C42.836285,44.385738 29.067263,59.707039 19.230974,78.251396 
	C11.198036,93.395882 5.079812,109.108398 2.867526,126.203537 
	C2.828658,126.503891 2.197112,126.727554 1.421059,126.993500 
	C1.000000,85.073029 1.000000,43.146053 1.000000,1.000000 
	C42.687305,1.000000 84.374992,1.000000 126.531342,1.000001 
z"/>
<path fill="#000000" opacity="1.000000" stroke="none" 
	d="
M90.784645,259.286621 
	C78.740196,252.474228 68.060890,244.460785 59.036221,234.457809 
	C43.601578,217.349915 33.046013,197.657669 29.065470,174.803055 
	C27.644253,166.643021 25.906788,158.307556 26.204590,150.120941 
	C27.180790,123.285133 34.427444,98.424355 50.833042,76.505096 
	C63.638901,59.395397 79.667526,46.592049 98.881340,37.636391 
	C109.726822,32.581257 121.059601,29.051105 133.076904,27.968912 
	C138.582199,27.473145 144.128464,25.775429 149.535248,26.191921 
	C160.358612,27.025658 171.313293,28.050686 181.829575,30.588621 
	C205.398743,36.276642 225.511597,48.472679 241.807739,66.430481 
	C257.496429,83.718880 268.294434,103.795067 271.814880,127.030090 
	C273.556335,138.523575 274.267456,150.356216 273.750244,161.959900 
	C273.176666,174.829102 269.494843,187.280670 264.372711,199.237274 
	C257.705109,214.801422 248.483765,228.640869 236.185226,240.191681 
	C218.521637,256.781403 197.837372,268.099792 173.744034,271.812592 
	C162.257797,273.582642 150.406021,274.349731 138.818695,273.728058 
	C125.991432,273.039856 113.387627,269.846222 101.599792,264.227417 
	C98.130058,262.573547 94.569046,261.111176 90.784645,259.286621 
M154.274155,124.000000 
	C144.944275,124.000008 135.613983,123.947090 126.284668,124.019432 
	C120.476685,124.064468 116.023323,128.458755 116.000137,133.950165 
	C115.974335,140.061539 120.595795,144.930481 126.563232,144.989578 
	C131.654144,145.039993 136.745956,144.999985 141.695160,144.999985 
	C141.695160,167.353333 141.695160,189.087051 141.695160,211.000488 
	C136.077103,211.000488 130.724808,210.601166 125.457962,211.101456 
	C118.860916,211.728088 113.222260,215.181168 113.926384,223.282288 
	C114.386414,228.575104 118.299469,232.944031 123.897011,232.966858 
	C144.389023,233.050369 164.882309,233.098221 185.373520,232.944946 
	C192.299942,232.893112 196.559525,226.894760 195.024857,220.075638 
	C193.710541,214.235641 189.715836,211.168762 182.922455,211.022629 
	C177.667572,210.909561 172.408295,211.000046 167.000015,211.000046 
	C167.000015,209.220840 167.000015,208.069351 167.000015,206.917862 
	C167.000015,184.259644 167.176285,161.599442 166.918503,138.944153 
	C166.805832,129.040009 163.465042,123.228554 154.274155,124.000000 
M168.002563,77.386887 
	C167.200012,69.435089 162.792923,64.472038 155.323975,61.988735 
	C147.216431,59.293110 140.029709,61.252533 134.420959,67.264214 
	C129.106384,72.960602 128.861282,80.144852 130.853821,87.432404 
	C134.060440,99.160355 149.409973,103.743797 160.140976,97.013710 
	C165.743515,93.499992 169.919220,83.882065 168.002563,77.386887 
z"/>
<path fill="#FFFFFF" opacity="1.000000" stroke="none" 
	d="
M154.739380,124.000000 
	C163.465042,123.228554 166.805832,129.040009 166.918503,138.944153 
	C167.176285,161.599442 167.000015,184.259644 167.000015,206.917862 
	C167.000015,208.069351 167.000015,209.220840 167.000015,211.000046 
	C172.408295,211.000046 177.667572,210.909561 182.922455,211.022629 
	C189.715836,211.168762 193.710541,214.235641 195.024857,220.075638 
	C196.559525,226.894760 192.299942,232.893112 185.373520,232.944946 
	C164.882309,233.098221 144.389023,233.050369 123.897011,232.966858 
	C118.299469,232.944031 114.386414,228.575104 113.926384,223.282288 
	C113.222260,215.181168 118.860916,211.728088 125.457962,211.101456 
	C130.724808,210.601166 136.077103,211.000488 141.695160,211.000488 
	C141.695160,189.087051 141.695160,167.353333 141.695160,144.999985 
	C136.745956,144.999985 131.654144,145.039993 126.563232,144.989578 
	C120.595795,144.930481 115.974335,140.061539 116.000137,133.950165 
	C116.023323,128.458755 120.476685,124.064468 126.284668,124.019432 
	C135.613983,123.947090 144.944275,124.000008 154.739380,124.000000 
z"/>
<path fill="#FFFFFF" opacity="1.000000" stroke="none" 
	d="
M168.018585,77.808678 
	C169.919220,83.882065 165.743515,93.499992 160.140976,97.013710 
	C149.409973,103.743797 134.060440,99.160355 130.853821,87.432404 
	C128.861282,80.144852 129.106384,72.960602 134.420959,67.264214 
	C140.029709,61.252533 147.216431,59.293110 155.323975,61.988735 
	C162.792923,64.472038 167.200012,69.435089 168.018585,77.808678 
z"/>
</svg>