<svg xmlns="http://www.w3.org/2000/svg" aria-hidden="true" fill="#fff" height="24" role="img" viewBox="0 0 24 24" width="24">
    <path d="M4 14V8a1 1 0 0 1 2 0v6a1 1 0 1 1-2 0Z" fill="#fff"></path>
    <path d="M8 10a1 1 0 1 1 0 2H2a1 1 0 1 1 0-2h6Zm9.5-2.5a2.5 2.5 0 1 0-5 0 2.5 2.5 0 0 0 5 0Zm2 0a4.5 4.5 0 1 1-9 0 4.5 4.5 0 0 1 9 0Zm-4.501 5.667c3.147 0 5.945 1.495 7.61 3.801.889 1.231.185 2.837-1.18 3.215-1.34.372-3.549.817-6.429.817-2.878 0-5.091-.447-6.44-.822-1.37-.38-2.048-1.995-1.17-3.212 1.666-2.305 4.463-3.8 7.609-3.8Zm0 2c-2.51 0-4.702 1.191-5.987 2.971-.01.015-.012.024-.012.024 0 .003 0 .01.004.02s.012.023.024.035c.012.01.032.025.068.035C10.297 18.585 12.33 19 15 19c2.674 0 4.7-.413 5.895-.744a.182.182 0 0 0 .076-.038.096.096 0 0 0 .025-.038.044.044 0 0 0 .004-.017s0-.008-.012-.024c-1.285-1.78-3.478-2.972-5.989-2.972Z" fill="#fff"></path>
</svg>