<svg xmlns="http://www.w3.org/2000/svg" width="32" height="32" viewBox="0 0 256 256">
  <rect width="256" height="256" rx="48" fill="#ffffff"/>

  <!-- I : bookshelf -->
  <rect x="52" y="52" width="54" height="152" rx="8" fill="#2F3A4A"/>
  <rect x="61" y="90" width="36" height="6" rx="3" fill="#41D1FF"/>
  <rect x="61" y="126" width="36" height="6" rx="3" fill="#41D1FF"/>
  <rect x="61" y="162" width="36" height="6" rx="3" fill="#41D1FF"/>

  <!-- R : grounded geometric form -->
  <path fill="#2F3A4A" d="
    M126 52
    H165
    C192 52 208 66 208 90
    C208 110 196 123 175 127
    L209 204
    H184
    L154 132
    H146
    V204
    H126
    Z

    M146 70
    V114
    H164
    C180 114 188 106 188 92
    C188 77 180 70 164 70
    Z
  "/>

  <!-- shared ground -->
  <rect x="44" y="204" width="170" height="8" rx="4" fill="#41D1FF"/>
</svg>
